<?xml version="1.0" encoding="UTF-8"?>
<svg width="30px" height="25px" viewBox="0 0 30 25" version="1.1" xmlns="http://www.w3.org/2000/svg" xmlns:xlink="http://www.w3.org/1999/xlink">
    <!-- Generator: Sketch 56.3 (81716) - https://sketch.com -->
    <title>uizard_</title>
    <desc>Created with Sketch.</desc>
    <g id="Page-1" stroke="none" stroke-width="1" fill="none" fill-rule="evenodd">
        <g id="Group-21" fill="#171717" fill-rule="nonzero">
            <g id="uizard_icon_yellow_dark">
                <path d="M25.8525,0.085625 C26.114375,0.0275 26.373125,-5.60884672e-13 26.625,-5.60884672e-13 C28.971875,-5.60884672e-13 30.75875,2.395 29.675625,4.87375 C29.375,5.563125 28.81375,6.124375 28.12375,6.425625 C25.37875,7.625 22.736875,5.305 23.33625,2.6025 C23.61125,1.361875 24.6125,0.360625 25.8525,0.085625 Z M0.625,0.499375 L5.625,0.499375 C5.97,0.499375 6.25,0.78 6.25,1.124375 L6.25,10.325 C6.25,14.970625 10.11875,18.75 14.875,18.75 C19.4325,18.75 23.17625,15.27875 23.48,10.900625 C23.503125,10.5725 23.79,10.325 24.11875,10.325 L29.108125,10.325 C29.46,10.325 29.75125,10.615625 29.73625,10.966875 C29.394375,18.761875 22.85875,25 14.875,25 C6.673125,25 -3.19744231e-14,18.41625 -3.19744231e-14,10.325 L-3.19744231e-14,1.124375 C-3.19744231e-14,0.78 0.279375,0.499375 0.625,0.499375 Z" id="uizard_"></path>
            </g>
        </g>
    </g>
</svg>