<svg width="24" height="24" viewBox="0 0 24 24" fill="none" xmlns="http://www.w3.org/2000/svg">
<path fill-rule="evenodd" clip-rule="evenodd" d="M3.75 2.5C3.05964 2.5 2.5 3.05964 2.5 3.75V8.25C2.5 8.66421 2.16421 9 1.75 9C1.33579 9 1 8.66421 1 8.25V3.75C1 2.23122 2.23122 1 3.75 1H9C9.41421 1 9.75 1.33579 9.75 1.75C9.75 2.16421 9.41421 2.5 9 2.5H3.75ZM14.25 1.75C14.25 1.33579 14.5858 1 15 1H20.25C21.7688 1 23 2.23122 23 3.75V8.25C23 8.66421 22.6642 9 22.25 9C21.8358 9 21.5 8.66421 21.5 8.25V3.75C21.5 3.05964 20.9404 2.5 20.25 2.5H15C14.5858 2.5 14.25 2.16421 14.25 1.75ZM3.75 21.5H8.66667C9.08088 21.5 9.41667 21.8358 9.41667 22.25C9.41667 22.6642 9.08088 23 8.66667 23H3.75C2.23122 23 1 21.7688 1 20.25V15.75C1 15.3358 1.33579 15 1.75 15C2.16421 15 2.5 15.3358 2.5 15.75L2.5 20.25C2.5 20.9404 3.05964 21.5 3.75 21.5ZM15.3333 21.5H20.25C20.9404 21.5 21.5 20.9404 21.5 20.25V15.75C21.5 15.3358 21.8358 15 22.25 15C22.6642 15 23 15.3358 23 15.75V20.25C23 21.7688 21.7688 23 20.25 23H15.3333C14.9191 23 14.5833 22.6642 14.5833 22.25C14.5833 21.8358 14.9191 21.5 15.3333 21.5ZM7.25 8C7.25 6.48122 8.48122 5.25 10 5.25H14C15.5188 5.25 16.75 6.48122 16.75 8V11.25H22.25C22.6642 11.25 23 11.5858 23 12C23 12.4142 22.6642 12.75 22.25 12.75H16.75V16C16.75 17.5188 15.5188 18.75 14 18.75H10C8.48122 18.75 7.25 17.5188 7.25 16V12.75H1.75C1.33579 12.75 1 12.4142 1 12C1 11.5858 1.33579 11.25 1.75 11.25H7.25V8ZM15.25 8V11.25H8.75V8C8.75 7.30964 9.30964 6.75 10 6.75H14C14.6904 6.75 15.25 7.30964 15.25 8ZM8.75 16V12.75H15.25V16C15.25 16.6904 14.6904 17.25 14 17.25H10C9.30964 17.25 8.75 16.6904 8.75 16Z" fill="#00B3FF"/>
</svg>
