<svg width="24" height="24" viewBox="0 0 24 24" fill="none" xmlns="http://www.w3.org/2000/svg">
<path d="M8.56939 12.9649L12.5114 15.0522C12.6927 15.1545 12.8426 15.3043 12.945 15.4854L15.0342 19.4238C15.1237 19.5974 15.2594 19.743 15.4263 19.8446C15.5932 19.9462 15.7848 20 15.9803 20C16.1757 20 16.3674 19.9462 16.5343 19.8446C16.7012 19.743 16.8368 19.5974 16.9264 19.4238L19.055 15.4854C19.0947 15.388 19.1535 15.2994 19.2279 15.225C19.3024 15.1506 19.3911 15.0918 19.4886 15.0522L23.4306 12.9649C23.6031 12.8695 23.7469 12.7297 23.8471 12.5601C23.9472 12.3904 24 12.197 24 12C24 11.803 23.9472 11.6096 23.8471 11.4399C23.7469 11.2703 23.6031 11.1305 23.4306 11.0351L19.4886 8.94778C19.3073 8.84552 19.1574 8.69573 19.055 8.51456L16.9264 4.57621C16.8368 4.40264 16.7012 4.25705 16.5343 4.15541C16.3674 4.05377 16.1757 4 15.9803 4C15.7848 4 15.5932 4.05377 15.4263 4.15541C15.2594 4.25705 15.1237 4.40264 15.0342 4.57621L12.945 8.51456L12.5114 8.94778L8.56939 11.0351C8.39687 11.1305 8.25308 11.2703 8.15295 11.4399C8.05281 11.6096 8 11.803 8 12C8 12.197 8.05281 12.3904 8.15295 12.5601C8.25308 12.7297 8.39687 12.8695 8.56939 12.9649Z" fill="#6419FF"/>
<path d="M5.77815 18.3021C5.67575 18.2605 5.59078 18.185 5.5375 18.0882L4.49467 16.2699C4.44138 16.1871 4.36818 16.119 4.28176 16.0719C4.19533 16.0247 4.09845 16 4 16C3.90155 16 3.80467 16.0247 3.71824 16.0719C3.63182 16.119 3.55861 16.1871 3.50532 16.2699L2.43577 18.2219C2.38654 18.3123 2.31226 18.3865 2.22185 18.4358L0.269906 19.5053C0.187115 19.5586 0.119016 19.6318 0.0718599 19.7182C0.0247037 19.8047 0 19.9015 0 20C0 20.0985 0.0247037 20.1953 0.0718599 20.2818C0.119016 20.3682 0.187115 20.4414 0.269906 20.4947L2.22185 21.5642C2.31226 21.6135 2.38654 21.6877 2.43577 21.7781L3.50532 23.7301C3.55861 23.8129 3.63182 23.881 3.71824 23.9281C3.80467 23.9753 3.90155 24 4 24C4.09845 24 4.19533 23.9753 4.28176 23.9281C4.36818 23.881 4.44138 23.8129 4.49467 23.7301L5.5375 21.7781C5.59078 21.6813 5.67575 21.6058 5.77815 21.5642L7.73009 20.4947C7.81289 20.4414 7.88097 20.3682 7.92813 20.2818C7.97529 20.1953 8 20.0985 8 20C8 19.9015 7.97529 19.8047 7.92813 19.7182C7.88097 19.6318 7.81289 19.5586 7.73009 19.5053L5.77815 18.3021Z" fill="#A275FF"/>
<path d="M5.33361 1.72655C5.25681 1.69538 5.19308 1.63873 5.15312 1.56612L4.371 0.202429C4.33104 0.140336 4.27614 0.0892659 4.21132 0.0538987C4.1465 0.0185316 4.07384 0 4 0C3.92616 0 3.8535 0.0185316 3.78868 0.0538987C3.72386 0.0892659 3.66895 0.140336 3.62899 0.202429L2.82683 1.66639C2.7899 1.73419 2.73419 1.7899 2.66639 1.82682L1.20243 2.62899C1.14034 2.66895 1.08926 2.72386 1.05389 2.78868C1.01853 2.8535 1 2.92616 1 3C1 3.07384 1.01853 3.1465 1.05389 3.21132C1.08926 3.27614 1.14034 3.33104 1.20243 3.371L2.66639 4.17317C2.73419 4.21009 2.7899 4.2658 2.82683 4.33361L3.62899 5.79757C3.66895 5.85966 3.72386 5.91073 3.78868 5.9461C3.8535 5.98146 3.92616 6 4 6C4.07384 6 4.1465 5.98146 4.21132 5.9461C4.27614 5.91073 4.33104 5.85966 4.371 5.79757L5.15312 4.33361C5.19308 4.26099 5.25681 4.20434 5.33361 4.17317L6.79757 3.371C6.85966 3.33104 6.91073 3.27614 6.9461 3.21132C6.98146 3.1465 7 3.07384 7 3C7 2.92616 6.98146 2.8535 6.9461 2.78868C6.91073 2.72386 6.85966 2.66895 6.79757 2.62899L5.33361 1.72655Z" fill="#A275FF"/>
</svg>
